<?xml version="1.0" encoding="utf-8"?>
<!-- Generator: Adobe Illustrator 18.0.0, SVG Export Plug-In . SVG Version: 6.00 Build 0)  -->
<!DOCTYPE svg PUBLIC "-//W3C//DTD SVG 1.1//EN" "http://www.w3.org/Graphics/SVG/1.1/DTD/svg11.dtd">
<svg version="1.1" id="Layer_1" xmlns="http://www.w3.org/2000/svg" xmlns:xlink="http://www.w3.org/1999/xlink" x="0px" y="0px"
	 viewBox="0 0 150 150" enable-background="new 0 0 150 150" xml:space="preserve">
<g>
	<g>
		<g>
			<path d="M124.3,63.9v1H122v6.5h-1.1v-6.5h-2.3v-1H124.3z"/>
			<path d="M126.4,66v5.4h-1.1v-7.5h1.2l2.5,5.1l2.6-5.1h1.2v7.5h-1.1V66l-2.2,4.5h-0.8L126.4,66z"/>
		</g>
	</g>
	<g>
		<path d="M75,136.6c-31.8,0-57.7-27.1-57.7-60.3c0-0.2,0-0.5,0-0.7l0-0.2L31,75.5l0,0.8c0,25.7,19.7,46.6,44,46.6s44-20.9,44-46.6
			l0-0.8l13.7-0.2l0,0.2c0,0.2,0,0.5,0,0.7C132.7,109.5,106.8,136.6,75,136.6z"/>
		<g>
			<path d="M41.4,13.4c0.1,0,0.1,0,0.2,0v13.9h12.9c0.2,1.3,0.3,2.6,0.3,4c0,0.1,0,0.2,0,0.3h0v16.9H28V31.6c0-0.1,0-0.2,0-0.3
				C28,21.5,34,13.4,41.4,13.4z"/>
		</g>
		<rect x="95.1" y="35.5" width="26.9" height="13.7"/>
	</g>
</g>
</svg>
