<!-- Generator: Adobe Illustrator 21.1.0, SVG Export Plug-In  -->
<svg version="1.1"
	 xmlns="http://www.w3.org/2000/svg" xmlns:xlink="http://www.w3.org/1999/xlink" xmlns:a="http://ns.adobe.com/AdobeSVGViewerExtensions/3.0/"
	 x="0px" y="0px" width="195.4px" height="208.3px" viewBox="0 0 195.4 208.3" style="enable-background:new 0 0 195.4 208.3;"
	 xml:space="preserve">
<style type="text/css">
	.st0{fill:#231F20;}
</style>
<defs>
</defs>
<g>
	<path class="st0" d="M97.7,208.3c-53.9,0-97.7-45.8-97.7-102c0-0.4,0-0.8,0-1.2l0-0.4l23.2,0.3l0,1.3c0,43.5,33.4,78.8,74.5,78.8
		s74.5-35.4,74.5-78.8l0-1.3l23.2-0.3l0,0.4c0,0.4,0,0.8,0,1.2C195.4,162.5,151.5,208.3,97.7,208.3z"/>
	<g>
		<path class="st0" d="M154.4,0c0.1,0,0.2,0,0.3,0v23.6h21.8c0.4,2.2,0.6,4.4,0.6,6.7c0,0.2,0,0.3,0,0.5h0v28.6h-45.4V30.8
			c0-0.2,0-0.3,0-0.5C131.7,13.5,141.9,0,154.4,0z"/>
		<path class="st0" d="M40.9,0c0.1,0,0.2,0,0.3,0v23.6h21.8c0.4,2.2,0.6,4.4,0.6,6.7c0,0.2,0,0.3,0,0.5h0v28.6H18.2V30.8
			c0-0.2,0-0.3,0-0.5C18.2,13.5,28.4,0,40.9,0z"/>
	</g>
</g>
</svg>
