<!-- Generator: Adobe Illustrator 21.1.0, SVG Export Plug-In  -->
<svg version="1.1"
	 xmlns="http://www.w3.org/2000/svg" xmlns:xlink="http://www.w3.org/1999/xlink" xmlns:a="http://ns.adobe.com/AdobeSVGViewerExtensions/3.0/"
	 x="0px" y="0px" width="16.2px" height="27.9px" viewBox="0 0 16.2 27.9"
	 style="overflow:scroll;enable-background:new 0 0 16.2 27.9;" xml:space="preserve">
<defs>
</defs>
<g>
	<g>
		<path d="M16,3l-11,11l11,11c0.2,0.2,0.3,0.4,0.3,0.6c0,0.2-0.1,0.5-0.3,0.6l-1.4,1.4c-0.2,0.2-0.4,0.3-0.6,0.3
			c-0.2,0-0.5-0.1-0.6-0.3l-13-13C0.1,14.4,0,14.1,0,13.9c0-0.2,0.1-0.5,0.3-0.6l13-13C13.5,0.1,13.7,0,13.9,0
			c0.2,0,0.5,0.1,0.6,0.3L16,1.7c0.2,0.2,0.3,0.4,0.3,0.6C16.2,2.5,16.1,2.8,16,3z"/>
	</g>
</g>
</svg>
