<!-- Generator: Adobe Illustrator 21.1.0, SVG Export Plug-In  -->
<svg version="1.1"
	 xmlns="http://www.w3.org/2000/svg" xmlns:xlink="http://www.w3.org/1999/xlink" xmlns:a="http://ns.adobe.com/AdobeSVGViewerExtensions/3.0/"
	 x="0px" y="0px" width="507px" height="253.6px" viewBox="0 0 507 253.6"
	 style="overflow:scroll;enable-background:new 0 0 507 253.6;" xml:space="preserve">
<defs>
</defs>
<g>
	<path d="M30.2,0C29.4,22.8,29,42.6,29,59.5c4-7.2,9.1-11.4,15.3-12.6c1.1-0.1,2.1-0.1,3.1-0.1c24.7,0,37.3,17.8,37.9,53.5v2
		c0,35.8-13.1,53.6-39.4,53.6c-6.3,0-12.2-4.2-17.8-12.6l-0.9,17.4l-26.9-0.1c0.4-27.7,0.6-54.4,0.6-80C0.7,52.5,0.5,25.6,0,0H30.2z
		 M29,80.7L28.4,120c3.9,8,8.9,12,15,12c0.7,0,1.4,0,2-0.1c7-1,10.8-10.3,11.6-28.1c0.1-1.8,0.1-3.6,0.1-5.2c0-14.6-3-23.2-8.9-26
		c-1.8-0.8-3.6-1.2-5.3-1.2C38.2,71.4,33.5,74.5,29,80.7z"/>
	<path d="M321.5,0c-0.5,25.6-0.7,52.5-0.7,80.6c0,25.6,0.2,52.3,0.6,80l-26.9,0.1l-0.9-17.4c-5.6,8.4-13.1,12.6-22.4,12.6
		c-23.3,0-34.9-17.8-34.9-53.4c0-0.8,0-1.5,0.1-2.3c0.5-35.7,12-53.5,34.6-53.5c0.9,0,1.9,0,2.8,0.1c7.7,0.5,14,4.7,18.8,12.6
		c0-16.8-0.4-36.6-1.2-59.5H321.5z M293.1,120l-0.6-39.3c-4.4-6-8.9-9-13.5-9c-1.9,0-3.8,0.5-5.7,1.5c-6,3.1-9,11.8-9,26.1
		c0,1.7,0,3.4,0.1,5.1c0.8,17.4,4.6,26.5,11.6,27.5c0.7,0.1,1.4,0.1,2,0.1C284.1,132.1,289.1,128.1,293.1,120z"/>
	<path d="M416.4,0c-0.5,25.6-0.7,52.5-0.7,80.6c0,25.6,0.2,52.3,0.6,80l-26.9,0.1l-0.9-17.4c-5.6,8.4-13.1,12.6-22.4,12.6
		c-23.3,0-34.9-17.8-34.9-53.4c0-0.8,0-1.5,0.1-2.3c0.5-35.7,12-53.5,34.6-53.5c0.9,0,1.9,0,2.8,0.1c7.7,0.5,14,4.7,18.8,12.6
		c0-16.8-0.4-36.6-1.2-59.5H416.4z M388,120l-0.6-39.3c-4.4-6-8.9-9-13.5-9c-1.9,0-3.8,0.5-5.7,1.5c-6,3.1-9,11.8-9,26.1
		c0,1.7,0,3.4,0.1,5.1c0.8,17.4,4.6,26.5,11.6,27.5c0.7,0.1,1.4,0.1,2,0.1C379,132.1,384.1,128.1,388,120z"/>
	<path d="M425.2,43.7l29.8-2.4c-0.7,22.7-1,41.5-1,56.2c0,5.5,0.1,10.5,0.2,14.9c0.3,16.2,3.9,24.6,10.9,25c0.5,0.1,0.9,0.1,1.2,0.1
		c6.2,0,10.2-3.6,11.8-10.7c0.9-4.2,1.4-14.1,1.4-29.7c0-12.5-0.3-28.6-0.9-48.4l28-2c0.3,23.1,0.5,43,0.5,59.6
		c0,20.7-0.2,36.3-0.7,46.8c-0.8,18.9-6.2,33.3-16.3,43.2c-9.1,8.9-21.9,13.4-38.3,13.4c-1.9,0-3.8-0.1-5.8-0.2l-3.2-27.7
		c1.4,0.1,2.8,0.1,4.2,0.1c12.7,0,21.4-2.2,26.1-6.7c4.8-4.6,7.3-12,7.3-22.3V151c-4.3,6.8-11,10.2-19.9,10.2h-1.6
		c-9.8-0.5-17.4-4.3-22.7-11.5c-5.4-7.2-8.3-17.4-8.8-30.5C426.9,106.1,426.2,80.9,425.2,43.7z"/>
	<g>
		<path d="M158.3,162.7c-29.9,0-54.3-25.4-54.3-56.7c0-0.2,0-0.4,0-0.7l0-0.2l12.9,0.2l0,0.7c0,24.2,18.6,43.8,41.4,43.8
			s41.4-19.7,41.4-43.8l0-0.7l12.9-0.2l0,0.2c0,0.2,0,0.4,0,0.7C212.6,137.2,188.2,162.7,158.3,162.7z"/>
		<g>
			<path d="M189.9,46.9c0.1,0,0.1,0,0.2,0V60h12.1c0.2,1.2,0.3,2.4,0.3,3.7c0,0.1,0,0.2,0,0.3h0v15.9h-25.2V64c0-0.1,0-0.2,0-0.3
				C177.2,54.5,182.9,46.9,189.9,46.9z"/>
			<path d="M126.8,46.9c0.1,0,0.1,0,0.2,0V60h12.1c0.2,1.2,0.3,2.4,0.3,3.7c0,0.1,0,0.2,0,0.3h0v15.9h-25.2V64c0-0.1,0-0.2,0-0.3
				C114.2,54.5,119.8,46.9,126.8,46.9z"/>
		</g>
	</g>
	<g>
		<path d="M2.4,188.1c1.6,0.4,2.4,1.1,2.4,2.2l0.7,7.6c0.8-0.9,3.9-1.4,9.1-1.3c5.3,0.1,8.4,2.5,9.4,7.4c1,4.9,1.5,8.6,1.5,11.3
			l0.3,37.3c-0.2,0.7-1.4,0.8-3.7,0.5c-1.6-0.5-2.1-10.7-1.5-30.7c0.6-13.5-1.5-20.4-6.4-20.7c-4.9-0.3-7.8,1.3-8.6,4.9v1.4L5,252.5
			l-1.2,1H2.5c-0.8,0-1.6-0.5-2.2-1.6L0,241v-38.3l0.2-12.9C0.7,188.7,1.4,188.1,2.4,188.1z"/>
		<path d="M51.3,189.9c7,0.9,11.5,4.6,13.5,10.9c1.9,6.3,2.6,11.7,1.9,16.1l-3.8,0.1l-22.6-0.1l-0.2-0.2c-1.6,12.6-1,20.9,1.9,24.9
			c2.8,4,5.6,6,8.2,6h0.6c3.8,0,6.4-1.4,7.9-4.2c1.5-2.8,3-4.4,4.5-5c1.5-0.5,2.4,0.6,2.6,3.3c0,4.8-3.1,8.4-9.3,10.9
			c-1.7,0.7-3.7,1-5.9,1c-5.7,0-10.2-2.6-13.6-7.7c-3.4-4.6-4.4-16-3.2-34.3c0-6.3,1.9-11.8,5.8-16.7
			C42.8,191.6,46.7,189.9,51.3,189.9z M40,211c0.5,0.5,7.7,0.6,21.4,0.5v-1c-1.4-7.8-4.2-12.6-8.5-14.3l-2-0.4
			c-5.4,0-8.9,3.5-10.4,10.4L40,211z"/>
		<path d="M84.7,189.4h0.6c4.4,0,7.3,2.6,8.9,7.9l0.6,3.9c0,1.1-0.9,1.7-2.6,2c-1.8,0-2.6-1.6-2.6-4.7c-0.8-2.2-2.5-3.4-5.2-3.5
			c-2.6-0.1-4.6,1.4-6,4.3l-0.3,4.3c0.5,21.2,0.7,36.5,0.7,46c-0.4,2.7-1.5,4.1-3.2,4.1c-1.7,0-2.8-1.6-3.2-4.7l0.4-15.6L72.5,204
			l0.2-1.8l-0.4-9.1c0.3-1.2,0.6-1.8,1-1.8h0.6c1.1,0,1.8,0.9,2.2,2.6C78.7,190.8,81.5,189.4,84.7,189.4z"/>
		<path d="M119.2,189.9c7,0.9,11.5,4.6,13.5,10.9c1.9,6.3,2.6,11.7,1.9,16.1l-3.8,0.1l-22.6-0.1l-0.2-0.2c-1.6,12.6-1,20.9,1.9,24.9
			c2.8,4,5.6,6,8.2,6h0.6c3.8,0,6.4-1.4,7.9-4.2c1.5-2.8,3-4.4,4.5-5c1.5-0.5,2.4,0.6,2.6,3.3c0,4.8-3.1,8.4-9.3,10.9
			c-1.7,0.7-3.7,1-5.9,1c-5.7,0-10.2-2.6-13.6-7.7c-3.4-4.6-4.4-16-3.2-34.3c0-6.3,1.9-11.8,5.8-16.7
			C110.7,191.6,114.6,189.9,119.2,189.9z M108,211c0.5,0.5,7.7,0.6,21.4,0.5v-1c-1.4-7.8-4.2-12.6-8.5-14.3l-2-0.4
			c-5.4,0-8.9,3.5-10.4,10.4L108,211z"/>
		<path d="M187.2,188.6c1.5,0.4,2.3,1.6,2.4,3.7c0.2,0.6,0.3,1.7,0.3,3.4h0.7h1.9l8,0.3c0.7,0,1.2,1,1.7,2.9c0,0.8-0.5,1.4-1.5,1.6
			l-0.5-0.1l-10-0.2v4.5l0.1,3.8c-1.5,22.9-1,35.5,1.7,37.9c1.6,1.7,2.9,2.5,4,2.5h0.7c2.5-0.7,3.8-1.5,3.8-2.6l-0.3-1.4v-0.1
			c0-1.8,0.6-2.8,1.7-2.8h0.5c1.9,0.5,2.8,1.4,2.8,2.6l0.2,1.5c0,3-1.9,5.3-5.6,6.9c-0.8,0.3-1.8,0.5-2.9,0.5h-1.1
			c-3.6,0-7.1-3-10.3-9c-1.1-2.9-1.7-7-1.7-12.4c0-3.2,0.2-11.1,0.6-23.5l0.1-8.9h-8.1c-0.4,0-0.7-0.4-0.7-1.1
			c-0.2-2.1,0.6-3.1,2.3-3.1l6.3-0.1l0.3-0.6l0-4.1C184.8,189,185.7,188.2,187.2,188.6z"/>
		<path d="M219,192.4c5.8-3.5,10.6-3.4,14.3,0.3c3.7,3.7,6.5,10.5,8.4,20.5c1.9,10,2,19.3,0.3,27.7s-6.3,12.7-13.7,12.7h-0.2
			c-8.2,0-14.1-6.1-17.4-18.4c-0.5-2.6-0.8-6.2-0.8-10.7C210.1,206.5,213.2,195.8,219,192.4z M215.1,218.3v2.6
			c0,10.9,1.8,18.2,5.5,22.1c1.5,3,4.3,4.5,8.3,4.5c4.8,0,7.7-4,8.4-11.9c0.8-7.9,0.3-16.1-1.6-24.4c-1.8-8.3-4.9-13.3-9.2-15.1
			C220.4,196.2,216.6,203.5,215.1,218.3z"/>
		<path d="M285.7,188.1c1.6,0.4,2.4,1.1,2.4,2.2l0.7,7.6c0.8-0.9,3.9-1.4,9.1-1.3c5.3,0.1,8.4,2.5,9.4,7.4c1,4.9,1.5,8.6,1.5,11.3
			l0.3,37.3c-0.2,0.7-1.4,0.8-3.7,0.5c-1.6-0.5-2.1-10.7-1.5-30.7c0.6-13.5-1.5-20.4-6.4-20.7s-7.8,1.3-8.6,4.9v1.4l-0.6,44.5
			l-1.2,1h-1.2c-0.8,0-1.6-0.5-2.2-1.6l-0.3-10.9v-38.3l0.2-12.9C283.9,188.7,284.7,188.1,285.7,188.1z"/>
		<path d="M334.5,189.9c7,0.9,11.5,4.6,13.5,10.9s2.6,11.7,1.9,16.1l-3.8,0.1l-22.6-0.1l-0.2-0.2c-1.6,12.6-1,20.9,1.9,24.9
			c2.8,4,5.6,6,8.2,6h0.6c3.8,0,6.4-1.4,7.9-4.2c1.5-2.8,3-4.4,4.5-5c1.5-0.5,2.4,0.6,2.6,3.3c0,4.8-3.1,8.4-9.3,10.9
			c-1.7,0.7-3.7,1-5.9,1c-5.7,0-10.2-2.6-13.6-7.7c-3.4-4.6-4.4-16-3.2-34.3c0-6.3,1.9-11.8,5.8-16.7
			C326,191.6,329.9,189.9,334.5,189.9z M323.3,211c0.5,0.5,7.7,0.6,21.4,0.5v-1c-1.4-7.8-4.2-12.6-8.5-14.3l-2-0.4
			c-5.4,0-8.9,3.5-10.4,10.4L323.3,211z"/>
		<path d="M361.9,188.1c0.9-0.3,1.5,0.3,1.9,1.8c0,8.8,0.3,27.7,0.7,56.8c0.9,4.6,0.2,6.9-2.2,6.9c-2.3,0-3.5-0.5-3.5-1.4l-0.8-1.4
			l0.2-7.1l-0.2-6.1c0.2-33,0.8-49.5,1.6-49.5L361.9,188.1z"/>
		<path d="M385.3,188.9h0.2c9.2,0,14.6,5.7,16.2,17.2l0.2,4.1c-0.3,4.3-4.2,8.4-11.6,12.3c-2.3,0.9-4.4,1.4-6.3,1.4
			c-2,0-3.8-0.5-5.5-1.4v0.2l0.8,27.9c-0.4,2-1.6,3-3.6,3c-1.9,0-2.8-2-2.8-6.1l-1.6-48.9c0.4-5.4,1.7-8.1,4.1-8.1
			C378.8,189.4,382.1,188.9,385.3,188.9z M376.4,197.2l1.6,16.7c2.4,2.6,4.5,3.9,6.3,3.9c5.6,0,9.5-2.7,11.8-8v-2
			c0-7-2.6-11.3-7.9-13.2l-3.4-0.4C382,194.2,379.2,195.2,376.4,197.2z"/>
		<path d="M416.8,242.1c0.7,0.2,1,0.4,1,0.6l1-0.2c4.6,1.8,6.9,4,6.9,6.5c0,2.6-2,4.2-6.1,4.7H419c-4.1-0.4-6.1-2.3-6.1-5.7
			c0-2.1,1.1-4,3.2-5.7L416.8,242.1z M417.2,246.7l-0.2,1v0.6c0.2,0.5,0.8,0.8,1.8,0.8h0.4l1.4-0.2
			C420.1,248.2,418.9,247.5,417.2,246.7z"/>
		<path d="M437.8,242.1c0.7,0.2,1,0.4,1,0.6l1-0.2c4.6,1.8,6.9,4,6.9,6.5c0,2.6-2,4.2-6.1,4.7H440c-4.1-0.4-6.1-2.3-6.1-5.7
			c0-2.1,1.1-4,3.2-5.7L437.8,242.1z M438.2,246.7l-0.2,1v0.6c0.2,0.5,0.8,0.8,1.8,0.8h0.4l1.4-0.2
			C441,248.2,439.9,247.5,438.2,246.7z"/>
		<path d="M458.8,242.1c0.7,0.2,1,0.4,1,0.6l1-0.2c4.6,1.8,6.9,4,6.9,6.5c0,2.6-2,4.2-6.1,4.7H461c-4.1-0.4-6.1-2.3-6.1-5.7
			c0-2.1,1.1-4,3.2-5.7L458.8,242.1z M459.2,246.7l-0.2,1v0.6c0.2,0.5,0.8,0.8,1.8,0.8h0.4l1.4-0.2
			C462,248.2,460.9,247.5,459.2,246.7z"/>
	</g>
</g>
</svg>
