<!-- Generator: Adobe Illustrator 21.1.0, SVG Export Plug-In  -->
<svg version="1.1"
	 xmlns="http://www.w3.org/2000/svg" xmlns:xlink="http://www.w3.org/1999/xlink" xmlns:a="http://ns.adobe.com/AdobeSVGViewerExtensions/3.0/"
	 x="0px" y="0px" width="42.9px" height="35.7px" viewBox="0 0 42.9 35.7"
	 style="overflow:scroll;enable-background:new 0 0 42.9 35.7;" xml:space="preserve">
<defs>
</defs>
<g>
	<path d="M42.9,5.4c0,1-0.8,1.8-1.8,1.8H1.8C0.8,7.1,0,6.3,0,5.4V1.8C0,0.8,0.8,0,1.8,0h39.3c1,0,1.8,0.8,1.8,1.8V5.4z M42.9,19.6
		c0,1-0.8,1.8-1.8,1.8H1.8c-1,0-1.8-0.8-1.8-1.8v-3.6c0-1,0.8-1.8,1.8-1.8h39.3c1,0,1.8,0.8,1.8,1.8V19.6z M42.9,33.9
		c0,1-0.8,1.8-1.8,1.8H1.8c-1,0-1.8-0.8-1.8-1.8v-3.6c0-1,0.8-1.8,1.8-1.8h39.3c1,0,1.8,0.8,1.8,1.8V33.9z"/>
</g>
</svg>
