<!-- Generator: Adobe Illustrator 21.1.0, SVG Export Plug-In  -->
<svg version="1.1"
	 xmlns="http://www.w3.org/2000/svg" xmlns:xlink="http://www.w3.org/1999/xlink" xmlns:a="http://ns.adobe.com/AdobeSVGViewerExtensions/3.0/"
	 x="0px" y="0px" width="495.7px" height="495.7px" viewBox="0 0 495.7 495.7"
	 style="overflow:scroll;enable-background:new 0 0 495.7 495.7;" xml:space="preserve">
<style type="text/css">
	.st0{fill:url(#SVGID_1_);}
	.st1{fill:#FFFFFF;}
	.st2{fill:url(#SVGID_2_);}
	.st3{opacity:0.5;}
	.st4{fill:url(#SVGID_3_);}
	.st5{fill:url(#SVGID_4_);}
	.st6{fill:#FBCD0D;}
	.st7{fill:#231F20;}
	.st8{fill:url(#SVGID_5_);}
	.st9{fill:url(#SVGID_6_);}
	.st10{fill:url(#SVGID_7_);}
	.st11{fill:url(#SVGID_8_);}
</style>
<defs>
</defs>
<g>
	<linearGradient id="SVGID_1_" gradientUnits="userSpaceOnUse" x1="247.8616" y1="495.723" x2="247.8616" y2="0">
		<stop  offset="0" style="stop-color:#FFFFFF"/>
		<stop  offset="1" style="stop-color:#DAD3D0"/>
	</linearGradient>
	<circle class="st0" cx="247.9" cy="247.9" r="247.9"/>
	<circle class="st1" cx="247.9" cy="247.9" r="247.9"/>
	<linearGradient id="SVGID_2_" gradientUnits="userSpaceOnUse" x1="247.8611" y1="482.4984" x2="247.8611" y2="13.2237">
		<stop  offset="0" style="stop-color:#DAD3D0"/>
		<stop  offset="1" style="stop-color:#FFFFFF"/>
	</linearGradient>
	<circle class="st2" cx="247.9" cy="247.9" r="234.6"/>
	<g class="st3">
		<radialGradient id="SVGID_3_" cx="247.8616" cy="247.861" r="234.4149" gradientUnits="userSpaceOnUse">
			<stop  offset="0.8817" style="stop-color:#FFFFFF"/>
			<stop  offset="0.9263" style="stop-color:#FFFFFD"/>
			<stop  offset="0.9423" style="stop-color:#FFFDF6"/>
			<stop  offset="0.9537" style="stop-color:#FFFBEB"/>
			<stop  offset="0.963" style="stop-color:#FEF7DA"/>
			<stop  offset="0.9709" style="stop-color:#FEF3C4"/>
			<stop  offset="0.9779" style="stop-color:#FEEDA8"/>
			<stop  offset="0.9843" style="stop-color:#FDE688"/>
			<stop  offset="0.9901" style="stop-color:#FCDF62"/>
			<stop  offset="0.9953" style="stop-color:#FCD639"/>
			<stop  offset="1" style="stop-color:#FBCD0D"/>
		</radialGradient>
		<circle class="st4" cx="247.9" cy="247.9" r="234.4"/>
	</g>
	<linearGradient id="SVGID_4_" gradientUnits="userSpaceOnUse" x1="247.8616" y1="415.4277" x2="247.8616" y2="80.2953">
		<stop  offset="0" style="stop-color:#FFFFFF"/>
		<stop  offset="1" style="stop-color:#DAD3D0"/>
	</linearGradient>
	<circle class="st5" cx="247.9" cy="247.9" r="167.6"/>
	<circle class="st6" cx="247.9" cy="247.9" r="156.3"/>
	<g>
		<path class="st7" d="M187.2,269.8c0-3.1-1.1-5.7-3.3-7.6c-2.2-1.9-6-3.7-11.5-5.4c-9.4-2.8-16.6-6.2-21.5-10
			c-4.9-3.9-7.3-9.1-7.3-15.8c0-6.7,2.8-12.2,8.3-16.4c5.5-4.2,12.5-6.4,21.1-6.4c9.1,0,16.3,2.3,21.9,6.8c5.5,4.6,8.2,10.6,8,18
			l-0.1,0.3h-15.9c0-4.1-1.2-7.2-3.7-9.4c-2.5-2.2-5.9-3.3-10.4-3.3c-4,0-7.2,1-9.4,2.9c-2.2,1.9-3.3,4.4-3.3,7.5
			c0,2.8,1.2,5,3.6,6.8c2.4,1.8,6.5,3.7,12.4,5.6c9,2.5,15.8,5.9,20.5,10c4.7,4.1,7.1,9.5,7.1,16.2c0,7-2.7,12.5-8.2,16.6
			c-5.5,4-12.7,6.1-21.7,6.1c-8.8,0-16.3-2.2-22.7-6.6c-6.3-4.4-9.4-10.9-9.2-19.6l0.1-0.3h15.9c0,4.8,1.4,8.4,4.3,10.7
			c2.8,2.3,6.7,3.4,11.6,3.4c4.4,0,7.7-0.9,10-2.8C186.1,275.4,187.2,272.9,187.2,269.8z"/>
		<path class="st7" d="M281.8,257.7c0,10.1-3.2,18.4-9.5,24.9c-6.3,6.5-14.6,9.8-24.7,9.8c-10.1,0-18.3-3.3-24.6-9.8
			c-6.3-6.5-9.4-14.8-9.4-24.9v-14.7c0-10,3.1-18.3,9.4-24.8c6.3-6.6,14.4-9.9,24.5-9.9c10.1,0,18.4,3.3,24.8,9.9
			c6.4,6.6,9.5,14.8,9.5,24.8V257.7z M265.5,242.8c0-6.4-1.6-11.6-4.8-15.7c-3.2-4.1-7.6-6.1-13.2-6.1c-5.5,0-9.9,2-12.9,6.1
			c-3.1,4.1-4.6,9.3-4.6,15.7v14.8c0,6.5,1.6,11.8,4.7,15.8c3.1,4.1,7.4,6.1,13,6.1c5.6,0,10-2,13.1-6.1c3.1-4.1,4.7-9.4,4.7-15.8
			V242.8z"/>
		<path class="st7" d="M337.4,269.8c0-3.1-1.1-5.7-3.3-7.6c-2.2-1.9-6-3.7-11.5-5.4c-9.4-2.8-16.6-6.2-21.5-10
			c-4.9-3.9-7.3-9.1-7.3-15.8c0-6.7,2.8-12.2,8.3-16.4s12.5-6.4,21.1-6.4c9.1,0,16.3,2.3,21.9,6.8c5.5,4.6,8.2,10.6,8,18l-0.1,0.3
			H337c0-4.1-1.2-7.2-3.7-9.4c-2.5-2.2-5.9-3.3-10.4-3.3c-4,0-7.2,1-9.4,2.9c-2.2,1.9-3.3,4.4-3.3,7.5c0,2.8,1.2,5,3.6,6.8
			c2.4,1.8,6.5,3.7,12.4,5.6c9,2.5,15.8,5.9,20.5,10c4.7,4.1,7.1,9.5,7.1,16.2c0,7-2.7,12.5-8.2,16.6c-5.5,4-12.7,6.1-21.7,6.1
			c-8.8,0-16.3-2.2-22.7-6.6c-6.3-4.4-9.4-10.9-9.2-19.6l0.1-0.3h15.9c0,4.8,1.4,8.4,4.3,10.7c2.8,2.3,6.7,3.4,11.6,3.4
			c4.4,0,7.7-0.9,10-2.8C336.3,275.4,337.4,272.9,337.4,269.8z"/>
	</g>
</g>
</svg>
