<!-- Generator: Adobe Illustrator 21.1.0, SVG Export Plug-In  -->
<svg version="1.1"
	 xmlns="http://www.w3.org/2000/svg" xmlns:xlink="http://www.w3.org/1999/xlink" xmlns:a="http://ns.adobe.com/AdobeSVGViewerExtensions/3.0/"
	 x="0px" y="0px" width="377.3px" height="442.1px" viewBox="0 0 377.3 442.1"
	 style="overflow:scroll;enable-background:new 0 0 377.3 442.1;" xml:space="preserve">
<style type="text/css">
	.st0{fill:#FFFFFF;}
	.st1{fill:#FBCD0D;}
</style>
<defs>
</defs>
<rect x="2.9" y="92.5" transform="matrix(0.9982 -5.917286e-02 5.917286e-02 0.9982 -8.3394 11.4199)" class="st0" width="371.6" height="108"/>
<rect x="63.1" class="st1" width="282" height="108"/>
<g>
	<path d="M119.1,53.1l0.3,21.2l-7.2,0.1c0-9-0.3-19.1-0.9-30.3l5.4-0.6l0.3,4.8c0.8-2.3,2.7-3.7,5.7-4c0.4,0,0.9-0.1,1.3-0.1
		c2.4,0,4.2,0.8,5.4,2.3c1.4,1.8,2.1,4.8,2.2,8.8L125,56c0-0.3,0-0.7,0-1c0-3.1-0.8-4.7-2.4-4.7h-0.1
		C120.6,50.5,119.5,51.4,119.1,53.1z"/>
	<path d="M143.8,44.1c6.6,0,10,4.6,10,13.8c0,0.4,0,0.7,0,1.1c-0.3,10-3.8,15-10.6,15.1c-0.1,0-0.2,0-0.2,0c-6.5,0-9.7-4.7-9.7-14.2
		v-0.8C133.4,49.1,136.9,44.1,143.8,44.1z M142.8,50.7c-1.2,0.4-2.1,2-2.5,4.8c-0.3,1.6-0.4,3.3-0.4,5c0,1.1,0.1,2.2,0.2,3.4
		c0.3,2.8,1.3,4.3,3,4.4h0.2c1.6,0,2.7-1,3.3-3.1c0.5-1.7,0.7-3.8,0.7-6.2c0-0.6,0-1.2,0-1.8c-0.2-3.1-0.6-5.1-1.4-5.9
		c-0.5-0.5-1.1-0.7-1.8-0.7C143.7,50.5,143.3,50.6,142.8,50.7z"/>
	<path d="M166.7,43.2c6.4,0.4,9.6,3.6,9.6,9.7v20.8l-6.8,0.1l-0.2-2.8c-1.4,1.6-3.3,2.4-5.6,2.4c-1,0-2.1-0.2-3.2-0.5
		c-3.5-0.9-5.2-3.5-5.2-8c0-0.5,0-1.1,0.1-1.8c0.4-4.6,3.7-6.9,9.9-6.9c1.2,0,2.5,0.1,3.9,0.3v-3.4c0-2.8-0.9-4.1-2.6-4.1h-0.1
		c-0.1,0-0.3,0-0.4,0c-1.9,0-2.8,1.5-2.8,4.6V54l-7-0.6c0-6.8,3.3-10.2,9.8-10.2H166.7z M169.2,66.4v-5.2c-0.8-0.2-1.6-0.3-2.3-0.3
		c-1.8,0-3,0.6-3.6,1.8c-0.4,0.7-0.6,1.4-0.6,2c0,0.8,0.3,1.5,0.9,2.1c0.5,0.5,1.1,0.7,1.9,0.7C166.5,67.5,167.7,67.1,169.2,66.4z"
		/>
	<path d="M200.9,32.7c-0.1,6.6-0.2,13.5-0.2,20.8c0,6.6,0,13.5,0.1,20.6l-6.9,0l-0.2-4.5c-1.4,2.2-3.4,3.3-5.8,3.3
		c-6,0-9-4.6-9-13.8c0-0.2,0-0.4,0-0.6c0.1-9.2,3.1-13.8,8.9-13.8c0.2,0,0.5,0,0.7,0c2,0.1,3.6,1.2,4.8,3.3c0-4.3-0.1-9.4-0.3-15.3
		H200.9z M193.5,63.6l-0.1-10.1c-1.1-1.5-2.3-2.3-3.5-2.3c-0.5,0-1,0.1-1.5,0.4c-1.5,0.8-2.3,3-2.3,6.7c0,0.4,0,0.9,0,1.3
		c0.2,4.5,1.2,6.8,3,7.1c0.2,0,0.4,0,0.5,0C191.2,66.7,192.5,65.7,193.5,63.6z"/>
	<path d="M202.8,63.8l6.7-0.3v0.4c0,3,0.9,4.5,2.8,4.6h0.1c1.8,0,2.7-0.9,2.7-2.6v-0.2c-0.1-1.9-1.8-3.5-5.3-4.6s-5.6-3.1-6.3-5.9
		c-0.3-1-0.4-1.9-0.4-2.8c0-1.6,0.4-3.2,1.3-4.6c1.3-2.1,3.2-3.4,5.9-3.7c0.7-0.1,1.4-0.1,2.1-0.1c1.7,0,3.3,0.3,4.6,0.9
		c1.8,0.8,3.1,2,3.8,3.6c0.5,1.1,0.7,2.3,0.7,3.6c0,0.6,0,1.3-0.1,1.9L215,54c0.1-0.5,0.1-0.9,0.1-1.3c0-2-0.6-3-1.9-3.1
		c-0.1,0-0.3,0-0.4,0c-1.3,0-2.2,0.7-2.6,2c-0.2,0.4-0.2,0.9-0.2,1.2c0,0.9,0.4,1.7,1.3,2.4c1.2,0.9,3,1.9,5.4,2.9s4,2.6,4.8,4.9
		c0.3,0.9,0.4,1.8,0.4,2.6c0,1.5-0.4,3-1.3,4.5c-1.4,2.4-3.5,3.8-6.4,4.2c-0.6,0.1-1.2,0.1-1.8,0.1c-2.1,0-4.1-0.6-6-1.7
		C204,71.2,202.9,68.2,202.8,63.8z"/>
	<path d="M232.2,37.3c0,1.2-0.4,2.2-1.3,3c-0.8,0.8-1.9,1.3-3,1.3c-1.2,0-2.2-0.4-3-1.3c-0.8-0.8-1.3-1.9-1.3-3c0-1.2,0.4-2.2,1.3-3
		c0.8-0.8,1.8-1.3,3-1.3c1.2,0,2.2,0.4,3,1.3C231.7,35.1,232.2,36.2,232.2,37.3z M224.3,74.3c-0.1-11.4-0.2-21.3-0.2-29.6l7.4-0.4
		c-0.2,8-0.4,15.9-0.4,23.8c0,2.1,0,4.2,0,6.3H224.3z"/>
	<path d="M255.9,32.7c-0.1,6.6-0.2,13.5-0.2,20.8c0,6.6,0,13.5,0.1,20.6l-6.9,0l-0.2-4.5c-1.4,2.2-3.4,3.3-5.8,3.3
		c-6,0-9-4.6-9-13.8c0-0.2,0-0.4,0-0.6c0.1-9.2,3.1-13.8,8.9-13.8c0.2,0,0.5,0,0.7,0c2,0.1,3.6,1.2,4.8,3.3c0-4.3-0.1-9.4-0.3-15.3
		H255.9z M248.6,63.6l-0.1-10.1c-1.1-1.5-2.3-2.3-3.5-2.3c-0.5,0-1,0.1-1.5,0.4c-1.5,0.8-2.3,3-2.3,6.7c0,0.4,0,0.9,0,1.3
		c0.2,4.5,1.2,6.8,3,7.1c0.2,0,0.4,0,0.5,0C246.3,66.7,247.6,65.7,248.6,63.6z"/>
	<path d="M267.8,44.1c6.8,0,10.2,4.5,10.2,13.5c0,1.1,0,2.3-0.1,3.5h-13.1c0,5,1,7.5,2.9,7.5h0.2c1.7-0.1,2.5-1.4,2.5-3.9
		c0-0.5,0-1.1-0.1-1.8l7-0.1c0,7.4-3.3,11.2-9.8,11.3c-0.1,0-0.1,0-0.2,0c-6.2,0-9.3-4.7-9.3-14.1v-0.9
		C258.1,49.1,261.4,44.1,267.8,44.1z M264,55.7h6.6V55c0-3.6-1-5.3-3-5.3C265.4,49.7,264.2,51.7,264,55.7z"/>
</g>
<g>
	<path class="st1" d="M55.8,137.9c8.8,0,13.4,4.1,13.9,12.4l1.7,28.3l-9.3,0.7l-0.5-3.8c-1.8,2.3-4.3,3.5-7.4,3.7
		c-1.4,0.1-2.8,0-4.4-0.4c-4.8-0.9-7.3-4.4-7.7-10.5c0-0.7-0.1-1.5,0-2.4c0.2-6.3,4.4-9.7,12.9-10.2c1.6-0.1,3.4-0.1,5.4,0l-0.3-4.6
		c-0.2-3.7-1.5-5.5-3.9-5.4l-0.2,0c-0.2,0-0.4,0-0.5,0c-2.6,0.2-3.7,2.3-3.5,6.5l0,0.6l-9.5-0.2c-0.5-9.3,3.6-14.2,12.6-14.7
		L55.8,137.9z M61,169.2l-0.4-7c-1.2-0.2-2.2-0.2-3.1-0.2c-2.4,0.1-4,1.1-4.8,2.7c-0.5,1-0.7,1.9-0.6,2.8c0.1,1.1,0.5,2,1.4,2.8
		c0.7,0.6,1.6,0.9,2.6,0.8C57.4,171,59.1,170.4,61,169.2z"/>
	<path class="st1" d="M73.2,164.9l9.1-1l0,0.5c0.2,4.1,1.6,6.1,4.2,6l0.2,0c2.4-0.1,3.6-1.4,3.5-3.8l0-0.3c-0.3-2.6-2.8-4.5-7.6-5.9
		c-4.8-1.3-7.8-3.8-9-7.5c-0.4-1.3-0.7-2.6-0.7-3.8c-0.1-2.2,0.3-4.3,1.3-6.3c1.6-3,4.1-4.9,7.7-5.5c0.9-0.2,1.9-0.3,2.8-0.3
		c2.4-0.1,4.5,0.1,6.3,0.9c2.5,1,4.3,2.5,5.4,4.6c0.7,1.4,1.1,3,1.2,4.8c0.1,0.9,0,1.7,0,2.6l-8.5,0.7c0-0.7,0-1.3,0-1.8
		c-0.2-2.7-1.1-4-2.8-4.1c-0.2,0-0.4,0-0.6,0c-1.8,0.1-2.9,1.1-3.4,2.9c-0.2,0.6-0.3,1.2-0.2,1.7c0.1,1.2,0.7,2.3,1.9,3.1
		c1.7,1.2,4.2,2.3,7.5,3.4c3.3,1.1,5.6,3.2,6.9,6.3c0.5,1.2,0.7,2.4,0.8,3.5c0.1,2-0.3,4.1-1.4,6.2c-1.7,3.4-4.4,5.4-8.3,6.2
		c-0.8,0.2-1.7,0.3-2.5,0.3c-2.9,0.2-5.7-0.4-8.3-1.8C75.5,174.9,73.6,171,73.2,164.9z"/>
	<path class="st1" d="M101.5,163.2l9.1-1l0,0.5c0.2,4.1,1.6,6.1,4.1,6l0.2,0c2.4-0.1,3.6-1.4,3.5-3.8l0-0.3
		c-0.3-2.6-2.8-4.5-7.6-5.9c-4.8-1.3-7.8-3.8-9-7.5c-0.4-1.3-0.7-2.6-0.7-3.8c-0.1-2.2,0.3-4.3,1.3-6.3c1.6-3,4.1-4.9,7.7-5.5
		c0.9-0.2,1.9-0.3,2.8-0.3c2.4-0.1,4.5,0.1,6.3,0.9c2.5,1,4.3,2.5,5.4,4.6c0.7,1.4,1.1,3,1.2,4.8c0.1,0.9,0,1.7,0,2.6l-8.5,0.7
		c0-0.7,0-1.3,0-1.8c-0.2-2.7-1.1-4-2.8-4.1c-0.2,0-0.4,0-0.6,0c-1.8,0.1-2.9,1.1-3.4,2.9c-0.2,0.6-0.2,1.2-0.2,1.7
		c0.1,1.2,0.7,2.3,1.9,3.1c1.7,1.2,4.2,2.3,7.5,3.4c3.3,1.1,5.6,3.2,6.9,6.3c0.5,1.2,0.7,2.4,0.8,3.5c0.1,2-0.3,4.1-1.4,6.2
		c-1.7,3.4-4.4,5.4-8.3,6.2c-0.8,0.2-1.7,0.3-2.5,0.3c-2.9,0.2-5.7-0.4-8.3-1.8C103.8,173.3,101.9,169.3,101.5,163.2z"/>
	<path class="st1" d="M139.3,125c0.1,1.6-0.4,3-1.5,4.2c-1.1,1.2-2.4,1.9-4,2c-1.6,0.1-3-0.4-4.2-1.5c-1.2-1.1-1.9-2.4-2-4
		c-0.1-1.6,0.4-3,1.5-4.2c1.1-1.2,2.4-1.9,4-2c1.6-0.1,3,0.4,4.2,1.5C138.5,122,139.2,123.4,139.3,125z M131.6,175.8
		c-1.1-15.5-2-28.9-2.7-40.2l10-1.2c0.3,10.8,0.8,21.6,1.4,32.3c0.2,2.9,0.4,5.7,0.5,8.6L131.6,175.8z"/>
	<path class="st1" d="M143.1,160.8l9.1-1l0,0.5c0.2,4.1,1.6,6.1,4.1,6l0.2,0c2.4-0.1,3.6-1.4,3.5-3.8l0-0.3
		c-0.3-2.6-2.8-4.5-7.6-5.9c-4.8-1.3-7.8-3.8-9-7.5c-0.4-1.3-0.7-2.6-0.7-3.8c-0.1-2.2,0.3-4.3,1.3-6.3c1.6-3,4.1-4.9,7.7-5.5
		c0.9-0.2,1.9-0.3,2.8-0.3c2.4-0.1,4.5,0.1,6.3,0.9c2.5,1,4.3,2.5,5.4,4.6c0.7,1.4,1.1,3,1.2,4.8c0.1,0.9,0,1.7,0,2.6l-8.5,0.7
		c0-0.7,0-1.3,0-1.8c-0.2-2.7-1.1-4-2.8-4.1c-0.2,0-0.4,0-0.6,0c-1.8,0.1-2.9,1.1-3.4,2.9c-0.2,0.6-0.2,1.2-0.2,1.7
		c0.1,1.2,0.7,2.3,1.9,3.1c1.7,1.2,4.2,2.3,7.5,3.4c3.3,1.1,5.6,3.2,6.9,6.3c0.5,1.2,0.7,2.4,0.8,3.5c0.1,2-0.3,4.1-1.4,6.2
		c-1.7,3.4-4.4,5.4-8.3,6.2c-0.8,0.2-1.7,0.3-2.5,0.3c-2.9,0.2-5.7-0.4-8.3-1.8C145.4,170.8,143.5,166.9,143.1,160.8z"/>
	<path class="st1" d="M176.2,119.2l9-1.1l0.8,13.2l7.6-0.6l0.6,7.5l-7.7,0.8l1.1,18.1c0.3,4.2,2.2,6.2,5.7,6c0.7,0,1.5-0.2,2.4-0.4
		l0.2,8.8c-1.3,0.2-2.5,0.4-3.6,0.5c-8.4,0.5-12.9-3.6-13.6-12.2l-1.2-19.5l-6.5,0.8l-0.7-8.9l6.7-0.3L176.2,119.2z"/>
	<path class="st1" d="M212.3,128.7c8.8,0,13.4,4.1,13.9,12.4l1.7,28.3l-9.3,0.7l-0.5-3.8c-1.8,2.3-4.3,3.5-7.4,3.7
		c-1.4,0.1-2.8,0-4.4-0.4c-4.8-0.9-7.3-4.4-7.7-10.5c0-0.7-0.1-1.5,0-2.4c0.2-6.3,4.4-9.7,12.9-10.2c1.6-0.1,3.4-0.1,5.4,0l-0.3-4.6
		c-0.2-3.7-1.5-5.5-3.9-5.4l-0.2,0c-0.2,0-0.4,0-0.5,0c-2.6,0.2-3.7,2.3-3.5,6.5l0,0.6l-9.5-0.2c-0.5-9.3,3.6-14.2,12.6-14.7
		L212.3,128.7z M217.5,159.9l-0.4-7c-1.2-0.2-2.2-0.2-3.1-0.2c-2.4,0.1-4,1.1-4.8,2.7c-0.5,1-0.7,1.9-0.6,2.8c0.1,1.1,0.5,2,1.4,2.8
		c0.7,0.6,1.6,0.9,2.6,0.8C214,161.7,215.6,161.1,217.5,159.9z"/>
	<path class="st1" d="M235.9,127.4l0.8,6.5c0.9-3.5,3.7-5.4,8.5-5.8l0.2,0c4.7-0.3,8,1.4,9.9,4.9c1.3,2.4,2.2,8.2,2.8,17.4
		c0.3,4.5,0.4,9.9,0.5,16l-9.6,0.6c-0.1-8.2-0.3-14.6-0.6-19.1c-0.1-2.3-0.3-4.1-0.4-5.4c-0.5-4-1.9-5.9-4.2-5.7
		c-2.3,0.1-3.7,1.3-4.1,3.4l2.1,28.8l-9.4,0.6c-0.7-12.2-1.9-25.9-3.7-41.1L235.9,127.4z"/>
	<path class="st1" d="M277.7,150.5l9.5,0c0.6,9.6-3.6,14.7-12.4,15.4c-0.1,0-0.2,0.1-0.3,0.1c-8.4,0.5-13-5.6-13.8-18.4l-0.1-1.2
		c-0.5-13.7,3.5-20.9,12.2-21.5l0.3,0c8-0.5,12.3,3.9,12.8,13.1c0,0.5,0,1.1,0.1,1.6l-8.5,1.1l-0.1-1c-0.3-4.8-1.8-7.2-4.5-7
		c-2.8,0.2-3.9,4.2-3.5,12l0.1,1.3c0.7,8.5,2.3,12.6,5,12.4l0.2,0c2.3-0.3,3.3-2.2,3.1-5.5C277.9,152.2,277.8,151.4,277.7,150.5z"/>
	<path class="st1" d="M302,124.5c9.2-0.5,14.2,5.3,14.9,17.5c0.1,1.5,0.1,3.1,0.1,4.8l-17.8,1.1c0.4,6.8,1.9,10.2,4.5,10l0.3,0
		c2.3-0.3,3.3-2.2,3.2-5.5c0-0.7-0.1-1.5-0.3-2.4l9.5-0.8c0.6,10.1-3.5,15.5-12.3,16.2c-0.1,0-0.2,0.1-0.3,0.1
		c-8.4,0.5-13-5.6-13.8-18.4l-0.1-1.2C289.3,132.1,293.3,125,302,124.5z M297.8,140.6l9-0.5l-0.1-1c-0.3-4.8-1.8-7.2-4.5-7
		C299.2,132.3,297.8,135.1,297.8,140.6z"/>
</g>
<g>
	<path class="st0" d="M46.4,301.6c-0.5,12.6-0.7,23.6-0.7,32.9c2.2-4,5.1-6.3,8.5-7c0.6,0,1.2-0.1,1.7-0.1c13.7,0,20.7,9.9,21,29.7
		v1.1c0,19.8-7.3,29.7-21.8,29.7c-3.5,0-6.8-2.3-9.9-7l-0.5,9.6l-14.9-0.1c0.2-15.4,0.3-30.1,0.3-44.3c0-15.6-0.1-30.5-0.4-44.6
		H46.4z M45.7,346.3l-0.3,21.8c2.2,4.4,5,6.7,8.3,6.7c0.4,0,0.8,0,1.1-0.1c3.9-0.5,6-5.7,6.4-15.6c0-1,0.1-2,0.1-2.9
		c0-8.1-1.6-12.9-4.9-14.4c-1-0.5-2-0.7-3-0.7C50.8,341.1,48.3,342.9,45.7,346.3z"/>
	<path class="st0" d="M207.8,301.6c-0.3,14.2-0.4,29.1-0.4,44.6c0,14.2,0.1,29,0.3,44.3l-14.9,0.1l-0.5-9.6c-3.1,4.7-7.2,7-12.4,7
		c-12.9,0-19.3-9.9-19.3-29.6c0-0.4,0-0.8,0.1-1.3c0.3-19.8,6.6-29.7,19.1-29.7c0.5,0,1,0,1.6,0.1c4.3,0.3,7.7,2.6,10.4,7
		c0-9.3-0.2-20.3-0.7-32.9H207.8z M192,368.1l-0.3-21.8c-2.4-3.3-4.9-5-7.5-5c-1.1,0-2.1,0.3-3.1,0.8c-3.3,1.7-5,6.5-5,14.5
		c0,0.9,0,1.9,0.1,2.8c0.4,9.6,2.6,14.7,6.4,15.2c0.4,0,0.8,0.1,1.1,0.1C187.1,374.7,189.8,372.5,192,368.1z"/>
	<path class="st0" d="M260.3,301.6c-0.3,14.2-0.4,29.1-0.4,44.6c0,14.2,0.1,29,0.3,44.3l-14.9,0.1l-0.5-9.6c-3.1,4.7-7.2,7-12.4,7
		c-12.9,0-19.3-9.9-19.3-29.6c0-0.4,0-0.8,0.1-1.3c0.3-19.8,6.6-29.7,19.1-29.7c0.5,0,1,0,1.6,0.1c4.3,0.3,7.7,2.6,10.4,7
		c0-9.3-0.2-20.3-0.7-32.9H260.3z M244.6,368.1l-0.3-21.8c-2.4-3.3-4.9-5-7.5-5c-1.1,0-2.1,0.3-3.1,0.8c-3.3,1.7-5,6.5-5,14.5
		c0,0.9,0,1.9,0.1,2.8c0.4,9.6,2.6,14.7,6.4,15.2c0.4,0,0.8,0.1,1.1,0.1C239.6,374.7,242.4,372.5,244.6,368.1z"/>
	<path class="st0" d="M265.2,325.8l16.5-1.3c-0.4,12.6-0.6,23-0.6,31.1c0,3.1,0,5.8,0.1,8.2c0.2,9,2.2,13.6,6,13.8
		c0.3,0,0.5,0.1,0.7,0.1c3.4,0,5.6-2,6.5-5.9c0.5-2.3,0.8-7.8,0.8-16.4c0-6.9-0.2-15.9-0.5-26.8l15.5-1.1c0.2,12.8,0.3,23.8,0.3,33
		c0,11.5-0.1,20.1-0.4,25.9c-0.4,10.5-3.4,18.5-9,23.9c-5,5-12.1,7.4-21.2,7.4c-1,0-2.1,0-3.2-0.1l-1.8-15.4c0.8,0,1.6,0.1,2.3,0.1
		c7.1,0,11.9-1.2,14.5-3.7c2.7-2.6,4-6.7,4-12.3v-1c-2.4,3.8-6.1,5.7-11,5.7h-0.9c-5.4-0.3-9.6-2.4-12.6-6.4c-3-4-4.6-9.6-4.9-16.9
		C266.1,360.4,265.7,346.4,265.2,325.8z"/>
	<g>
		<path class="st0" d="M117.4,391.7c-16.6,0-30.1-14.1-30.1-31.4c0-0.1,0-0.2,0-0.4l0-0.1l7.1,0.1l0,0.4c0,13.4,10.3,24.3,22.9,24.3
			s22.9-10.9,22.9-24.3l0-0.4l7.1-0.1l0,0.1c0,0.1,0,0.2,0,0.4C147.4,377.6,133.9,391.7,117.4,391.7z"/>
		<g>
			<path class="st0" d="M134.8,327.6c0,0,0.1,0,0.1,0v7.2h6.7c0.1,0.7,0.2,1.4,0.2,2.1c0,0.1,0,0.1,0,0.1h0v8.8h-14V337
				c0-0.1,0-0.1,0-0.1C127.8,331.8,131,327.6,134.8,327.6z"/>
			<path class="st0" d="M99.9,327.6c0,0,0.1,0,0.1,0v7.2h6.7c0.1,0.7,0.2,1.4,0.2,2.1c0,0.1,0,0.1,0,0.1h0v8.8h-14V337
				c0-0.1,0-0.1,0-0.1C92.9,331.8,96,327.6,99.9,327.6z"/>
		</g>
	</g>
	<g>
		<path class="st0" d="M31,405.8c0.9,0.2,1.3,0.6,1.3,1.2l0.4,4.2c0.5-0.5,2.1-0.8,5.1-0.7c2.9,0,4.6,1.4,5.2,4.1
			c0.5,2.7,0.8,4.8,0.8,6.2l0.2,20.7c-0.1,0.4-0.8,0.5-2.1,0.3c-0.9-0.3-1.2-5.9-0.8-17c0.4-7.5-0.8-11.3-3.5-11.5
			c-2.7-0.2-4.3,0.7-4.8,2.7v0.8l-0.3,24.7l-0.7,0.6h-0.7c-0.5,0-0.9-0.3-1.2-0.9l-0.2-6.1v-21.2l0.1-7.2
			C30.1,406.1,30.5,405.8,31,405.8z"/>
		<path class="st0" d="M58.1,406.8c3.9,0.5,6.4,2.5,7.5,6s1.4,6.5,1,8.9l-2.1,0.1l-12.5,0l-0.1-0.1c-0.9,7-0.5,11.6,1,13.8
			c1.6,2.2,3.1,3.3,4.5,3.3h0.3c2.1,0,3.6-0.8,4.4-2.3c0.8-1.5,1.6-2.5,2.5-2.7s1.3,0.3,1.5,1.8c0,2.6-1.7,4.7-5.2,6.1
			c-0.9,0.4-2,0.6-3.3,0.6c-3.1,0-5.6-1.4-7.5-4.3c-1.9-2.5-2.5-8.9-1.8-19c0-3.5,1.1-6.5,3.2-9.2C53.4,407.7,55.5,406.8,58.1,406.8
			z M51.9,418.5c0.3,0.3,4.2,0.4,11.8,0.3v-0.6c-0.7-4.3-2.3-7-4.7-7.9l-1.1-0.2c-3,0-4.9,1.9-5.8,5.7L51.9,418.5z"/>
		<path class="st0" d="M76.6,406.5h0.3c2.4,0,4.1,1.5,4.9,4.4l0.3,2.1c0,0.6-0.5,1-1.5,1.1c-1,0-1.5-0.9-1.5-2.6
			c-0.5-1.2-1.4-1.9-2.9-1.9s-2.5,0.8-3.3,2.4l-0.2,2.4c0.3,11.7,0.4,20.2,0.4,25.5c-0.2,1.5-0.8,2.2-1.8,2.2
			c-0.9,0-1.5-0.9-1.8-2.6l0.2-8.6l-0.1-16.3l0.1-1l-0.2-5.1c0.2-0.7,0.4-1,0.6-1h0.3c0.6,0,1,0.5,1.2,1.5
			C73.3,407.3,74.8,406.5,76.6,406.5z"/>
		<path class="st0" d="M95.7,406.8c3.9,0.5,6.4,2.5,7.5,6s1.4,6.5,1,8.9l-2.1,0.1l-12.5,0l-0.1-0.1c-0.9,7-0.5,11.6,1,13.8
			c1.6,2.2,3.1,3.3,4.5,3.3h0.3c2.1,0,3.6-0.8,4.4-2.3c0.8-1.5,1.6-2.5,2.5-2.7s1.3,0.3,1.5,1.8c0,2.6-1.7,4.7-5.2,6.1
			c-0.9,0.4-2,0.6-3.3,0.6c-3.1,0-5.6-1.4-7.5-4.3c-1.9-2.5-2.5-8.9-1.8-19c0-3.5,1.1-6.5,3.2-9.2C91,407.7,93.2,406.8,95.7,406.8z
			 M89.5,418.5c0.3,0.3,4.2,0.4,11.8,0.3v-0.6c-0.7-4.3-2.3-7-4.7-7.9l-1.1-0.2c-3,0-4.9,1.9-5.8,5.7L89.5,418.5z"/>
		<path class="st0" d="M133.4,406c0.8,0.2,1.3,0.9,1.3,2.1c0.1,0.3,0.2,1,0.2,1.9h0.4h1l4.4,0.2c0.4,0,0.7,0.5,0.9,1.6
			c0,0.5-0.3,0.8-0.8,0.9l-0.3-0.1l-5.5-0.1v2.5l0,2.1c-0.8,12.7-0.5,19.7,0.9,21c0.9,0.9,1.6,1.4,2.2,1.4h0.4
			c1.4-0.4,2.1-0.9,2.1-1.5l-0.2-0.8v-0.1c0-1,0.3-1.5,0.9-1.5h0.3c1,0.3,1.5,0.8,1.5,1.5l0.1,0.8c0,1.6-1,2.9-3.1,3.8
			c-0.5,0.2-1,0.3-1.6,0.3h-0.6c-2,0-3.9-1.7-5.7-5c-0.6-1.6-0.9-3.9-0.9-6.9c0-1.8,0.1-6.1,0.3-13l0.1-4.9h-4.5
			c-0.2,0-0.4-0.2-0.4-0.6c-0.1-1.1,0.3-1.7,1.3-1.7l3.5,0l0.1-0.3l0-2.3C132.1,406.3,132.6,405.8,133.4,406z"/>
		<path class="st0" d="M151,408.1c3.2-1.9,5.9-1.9,7.9,0.2c2,2,3.6,5.8,4.7,11.4s1.1,10.7,0.2,15.4c-0.9,4.7-3.5,7-7.6,7H156
			c-4.6,0-7.8-3.4-9.7-10.2c-0.3-1.5-0.4-3.4-0.4-6C146.1,416,147.7,410.1,151,408.1z M148.8,422.5v1.5c0,6,1,10.1,3,12.2
			c0.8,1.6,2.4,2.5,4.6,2.5c2.7,0,4.2-2.2,4.7-6.6c0.4-4.4,0.1-8.9-0.9-13.5c-1-4.6-2.7-7.4-5.1-8.3
			C151.8,410.2,149.7,414.3,148.8,422.5z"/>
		<path class="st0" d="M187.9,405.8c0.9,0.2,1.3,0.6,1.3,1.2l0.4,4.2c0.5-0.5,2.1-0.8,5.1-0.7c2.9,0,4.6,1.4,5.2,4.1
			c0.5,2.7,0.8,4.8,0.8,6.2l0.2,20.7c-0.1,0.4-0.8,0.5-2.1,0.3c-0.9-0.3-1.2-5.9-0.8-17c0.4-7.5-0.8-11.3-3.5-11.5
			c-2.7-0.2-4.3,0.7-4.8,2.7v0.8l-0.3,24.7l-0.7,0.6H188c-0.5,0-0.9-0.3-1.2-0.9l-0.2-6.1v-21.2l0.1-7.2
			C186.9,406.1,187.3,405.8,187.9,405.8z"/>
		<path class="st0" d="M215,406.8c3.9,0.5,6.4,2.5,7.5,6s1.4,6.5,1,8.9l-2.1,0.1l-12.5,0l-0.1-0.1c-0.9,7-0.5,11.6,1,13.8
			c1.6,2.2,3.1,3.3,4.5,3.3h0.3c2.1,0,3.6-0.8,4.4-2.3c0.8-1.5,1.6-2.5,2.5-2.7s1.3,0.3,1.5,1.8c0,2.6-1.7,4.7-5.2,6.1
			c-0.9,0.4-2,0.6-3.3,0.6c-3.1,0-5.6-1.4-7.5-4.3c-1.9-2.5-2.5-8.9-1.8-19c0-3.5,1.1-6.5,3.2-9.2
			C210.3,407.7,212.4,406.8,215,406.8z M208.7,418.5c0.3,0.3,4.2,0.4,11.8,0.3v-0.6c-0.7-4.3-2.3-7-4.7-7.9l-1.1-0.2
			c-3,0-4.9,1.9-5.8,5.7L208.7,418.5z"/>
		<path class="st0" d="M230.1,405.8c0.5-0.1,0.9,0.2,1,1c0,4.9,0.1,15.3,0.4,31.5c0.5,2.5,0.1,3.8-1.2,3.8c-1.3,0-1.9-0.3-1.9-0.8
			l-0.4-0.8l0.1-3.9l-0.1-3.4c0.1-18.3,0.4-27.4,0.9-27.4L230.1,405.8z"/>
		<path class="st0" d="M243.1,406.2h0.1c5.1,0,8.1,3.2,9,9.5l0.1,2.2c-0.2,2.4-2.3,4.7-6.4,6.8c-1.3,0.5-2.4,0.8-3.5,0.8
			c-1.1,0-2.1-0.3-3-0.8v0.1l0.4,15.5c-0.2,1.1-0.9,1.7-2,1.7c-1,0-1.6-1.1-1.6-3.4l-0.9-27.1c0.2-3,1-4.5,2.2-4.5
			C239.5,406.5,241.3,406.2,243.1,406.2z M238.2,410.8l0.9,9.3c1.3,1.4,2.5,2.1,3.5,2.1c3.1,0,5.3-1.5,6.5-4.4v-1.1
			c0-3.8-1.5-6.3-4.4-7.3l-1.9-0.2C241.3,409.1,239.7,409.7,238.2,410.8z"/>
		<path class="st0" d="M260.5,435.7c0.4,0.1,0.6,0.2,0.6,0.3l0.6-0.1c2.5,1,3.8,2.2,3.8,3.6c0,1.5-1.1,2.3-3.4,2.6h-0.3
			c-2.2-0.2-3.4-1.3-3.4-3.1c0-1.2,0.6-2.2,1.8-3.1L260.5,435.7z M260.8,438.2l-0.1,0.6v0.3c0.1,0.3,0.4,0.4,1,0.4h0.2l0.8-0.1
			C262.3,439.1,261.7,438.7,260.8,438.2z"/>
		<path class="st0" d="M272.2,435.7c0.4,0.1,0.6,0.2,0.6,0.3l0.6-0.1c2.5,1,3.8,2.2,3.8,3.6c0,1.5-1.1,2.3-3.4,2.6h-0.3
			c-2.2-0.2-3.4-1.3-3.4-3.1c0-1.2,0.6-2.2,1.8-3.1L272.2,435.7z M272.4,438.2l-0.1,0.6v0.3c0.1,0.3,0.4,0.4,1,0.4h0.2l0.8-0.1
			C274,439.1,273.3,438.7,272.4,438.2z"/>
		<path class="st0" d="M283.8,435.7c0.4,0.1,0.6,0.2,0.6,0.3l0.6-0.1c2.5,1,3.8,2.2,3.8,3.6c0,1.5-1.1,2.3-3.4,2.6H285
			c-2.2-0.2-3.4-1.3-3.4-3.1c0-1.2,0.6-2.2,1.8-3.1L283.8,435.7z M284,438.2l-0.1,0.6v0.3c0.1,0.3,0.4,0.4,1,0.4h0.2l0.8-0.1
			C285.6,439.1,284.9,438.7,284,438.2z"/>
	</g>
</g>
</svg>
