<!-- Generator: Adobe Illustrator 21.1.0, SVG Export Plug-In  -->
<svg version="1.1"
	 xmlns="http://www.w3.org/2000/svg" xmlns:xlink="http://www.w3.org/1999/xlink" xmlns:a="http://ns.adobe.com/AdobeSVGViewerExtensions/3.0/"
	 x="0px" y="0px" width="143px" height="143px" viewBox="0 0 143 143" style="overflow:scroll;enable-background:new 0 0 143 143;"
	 xml:space="preserve">
<style type="text/css">
	.st0{fill:#FBCD0D;}
</style>
<defs>
</defs>
<rect x="0" y="0" transform="matrix(-1 6.783177e-10 -6.783177e-10 -1 143 143)" class="st0" width="143" height="143"/>
<g>
	<path d="M70.7,99.4c-16.6,0-30.1-14.1-30.1-31.5c0-0.1,0-0.2,0-0.4l0-0.1l7.2,0.1l0,0.4c0,13.4,10.3,24.3,23,24.3s23-10.9,23-24.3
		l0-0.4l7.2-0.1l0,0.1c0,0.1,0,0.2,0,0.4C100.9,85.3,87.4,99.4,70.7,99.4z"/>
	<path d="M88.2,35.2c0,0,0.1,0,0.1,0v7.3h6.7c0.1,0.7,0.2,1.4,0.2,2.1c0,0.1,0,0.1,0,0.1h0v8.8h-14v-8.8c0-0.1,0-0.1,0-0.1
		C81.2,39.4,84.4,35.2,88.2,35.2z"/>
	<path d="M53.2,35.2c0,0,0.1,0,0.1,0v7.3h6.7c0.1,0.7,0.2,1.4,0.2,2.1c0,0.1,0,0.1,0,0.1h0v8.8h-14v-8.8c0-0.1,0-0.1,0-0.1
		C46.2,39.4,49.4,35.2,53.2,35.2z"/>
</g>
</svg>
