<!-- Generator: Adobe Illustrator 21.1.0, SVG Export Plug-In  -->
<svg version="1.1"
	 xmlns="http://www.w3.org/2000/svg" xmlns:xlink="http://www.w3.org/1999/xlink" xmlns:a="http://ns.adobe.com/AdobeSVGViewerExtensions/3.0/"
	 x="0px" y="0px" width="73.8px" height="58.6px" viewBox="0 0 73.8 58.6"
	 style="overflow:scroll;enable-background:new 0 0 73.8 58.6;" xml:space="preserve">
<style type="text/css">
	.st0{fill:#686868;}
</style>
<defs>
</defs>
<g>
	<path class="st0" d="M68.4,9.6H51.1V6.3c0-3.5-2.8-6.3-6.3-6.3H29.1c-3.5,0-6.3,2.8-6.3,6.3v3.3H5.5c-3,0-5.5,2.5-5.5,5.5v38.1
		c0,3,2.5,5.5,5.5,5.5h62.9c3,0,5.5-2.5,5.5-5.5V15.1C73.8,12.1,71.4,9.6,68.4,9.6z M26,9.6V6.3c0-1.7,1.4-3.1,3.1-3.1h15.7
		c1.7,0,3.1,1.4,3.1,3.1v3.3H26z M3.2,15.1c0-1.2,1-2.3,2.3-2.3h62.9c1.2,0,2.3,1,2.3,2.3v38.1c0,1.2-1,2.3-2.3,2.3H5.5
		c-1.2,0-2.3-1-2.3-2.3V15.1z"/>
	<g>
		<path class="st0" d="M36.9,48.5c-7.1,0-12.9-6-12.9-13.5c0-0.1,0-0.1,0-0.2l0-0.1l3.1,0l0,0.2c0,5.7,4.4,10.4,9.8,10.4
			s9.8-4.7,9.8-10.4l0-0.2l3.1,0l0,0.1c0,0.1,0,0.1,0,0.2C49.8,42.4,44,48.5,36.9,48.5z"/>
		<path class="st0" d="M44.4,21C44.4,21,44.4,21,44.4,21l0,3.1h2.9c0,0.3,0.1,0.6,0.1,0.9c0,0,0,0,0,0.1h0v3.8h-6v-3.8
			c0,0,0,0,0-0.1C41.4,22.8,42.8,21,44.4,21z"/>
		<path class="st0" d="M29.4,21C29.5,21,29.5,21,29.4,21l0,3.1h2.9c0,0.3,0.1,0.6,0.1,0.9c0,0,0,0,0,0.1h0v3.8h-6v-3.8
			c0,0,0,0,0-0.1C26.4,22.8,27.8,21,29.4,21z"/>
	</g>
</g>
</svg>
