<!-- Generator: Adobe Illustrator 21.1.0, SVG Export Plug-In  -->
<svg version="1.1"
	 xmlns="http://www.w3.org/2000/svg" xmlns:xlink="http://www.w3.org/1999/xlink" xmlns:a="http://ns.adobe.com/AdobeSVGViewerExtensions/3.0/"
	 x="0px" y="0px" width="56.3px" height="42.8px" viewBox="0 0 56.3 42.8"
	 style="overflow:scroll;enable-background:new 0 0 56.3 42.8;" xml:space="preserve">
<style type="text/css">
	.st0{fill:#686868;}
</style>
<defs>
</defs>
<g>
	<g>
		<path class="st0" d="M49.4,0H6.9C3.1,0,0,3.1,0,6.9v29.1c0,3.8,3.1,6.9,6.9,6.9h42.5c3.8,0,6.9-3.1,6.9-6.9v-29
			C56.3,3.1,53.2,0,49.4,0L49.4,0z M53.1,35.9c0,2.1-1.7,3.7-3.7,3.7H6.9c-2.1,0-3.7-1.7-3.7-3.7v-29c0-2.1,1.7-3.7,3.7-3.7h42.5
			c2.1,0,3.7,1.7,3.7,3.7L53.1,35.9L53.1,35.9z M53.1,35.9"/>
		<path class="st0" d="M35.5,21L49.2,8.7c0.6-0.6,0.7-1.6,0.1-2.2c-0.6-0.6-1.6-0.7-2.2-0.1l-19,17l-3.7-3.3c0,0,0,0,0,0
			c-0.1-0.1-0.2-0.2-0.3-0.2L9.1,6.4C8.5,5.8,7.5,5.8,6.9,6.5C6.3,7.1,6.4,8.1,7,8.7l13.9,12.4l-13.9,13c-0.6,0.6-0.7,1.6-0.1,2.2
			c0.3,0.3,0.7,0.5,1.2,0.5c0.4,0,0.8-0.1,1.1-0.4l14.1-13.2l3.8,3.4c0.3,0.3,0.7,0.4,1,0.4c0.4,0,0.8-0.1,1-0.4l3.9-3.5l14,13.3
			c0.3,0.3,0.7,0.4,1.1,0.4c0.4,0,0.8-0.2,1.1-0.5c0.6-0.6,0.6-1.6-0.1-2.2L35.5,21z M35.5,21"/>
	</g>
</g>
</svg>
