<!-- Generator: Adobe Illustrator 21.1.0, SVG Export Plug-In  -->
<svg version="1.1"
	 xmlns="http://www.w3.org/2000/svg" xmlns:xlink="http://www.w3.org/1999/xlink" xmlns:a="http://ns.adobe.com/AdobeSVGViewerExtensions/3.0/"
	 x="0px" y="0px" width="42.7px" height="42.7px" viewBox="0 0 42.7 42.7" style="enable-background:new 0 0 42.7 42.7;"
	 xml:space="preserve">
<style type="text/css">
	.st0{fill:#686868;}
</style>
<defs>
</defs>
<g>
	<g>
		<path class="st0" d="M19.4,19.4H0V0h19.4V19.4z M19.4,42.7H0V23.3h19.4V42.7z M15.5,15.5V3.9H3.9v11.7H15.5z M15.5,38.8V27.2H3.9
			v11.6H15.5z M11.7,11.7H7.8V7.8h3.9V11.7z M11.7,35H7.8v-3.9h3.9V35z M42.7,19.4H23.3V0h19.4V19.4z M42.7,35H31.1v-3.9h-3.9v11.7
			h-3.9V23.3H35v3.9h3.9v-3.9h3.9V35z M38.8,15.5V3.9H27.2v11.7H38.8z M35,11.7h-3.9V7.8H35V11.7z M35,42.7h-3.9v-3.9H35V42.7z
			 M42.7,42.7h-3.9v-3.9h3.9V42.7z"/>
	</g>
</g>
</svg>
