<!-- Generator: Adobe Illustrator 21.1.0, SVG Export Plug-In  -->
<svg version="1.1"
	 xmlns="http://www.w3.org/2000/svg" xmlns:xlink="http://www.w3.org/1999/xlink" xmlns:a="http://ns.adobe.com/AdobeSVGViewerExtensions/3.0/"
	 x="0px" y="0px" width="72px" height="28.6px" viewBox="0 0 72 28.6" style="overflow:scroll;enable-background:new 0 0 72 28.6;"
	 xml:space="preserve">
<style type="text/css">
	.st0{fill:#686868;}
</style>
<defs>
</defs>
<g>
	<g>
		<path class="st0" d="M15.4,20.9c0-1.1-0.4-1.9-1.1-2.6c-0.7-0.6-2-1.3-3.9-1.8c-3.2-1-5.6-2.1-7.3-3.4C1.4,11.8,0.6,10,0.6,7.7
			c0-2.3,0.9-4.1,2.8-5.6S7.6,0,10.5,0c3.1,0,5.6,0.8,7.4,2.3c1.9,1.6,2.8,3.6,2.7,6.1l0,0.1h-5.4c0-1.4-0.4-2.4-1.3-3.2
			c-0.8-0.7-2-1.1-3.5-1.1c-1.4,0-2.4,0.3-3.2,1C6.5,5.9,6.1,6.7,6.1,7.8c0,0.9,0.4,1.7,1.2,2.3c0.8,0.6,2.2,1.2,4.2,1.9
			c3.1,0.9,5.4,2,7,3.4c1.6,1.4,2.4,3.2,2.4,5.5c0,2.4-0.9,4.3-2.8,5.6c-1.9,1.4-4.3,2.1-7.4,2.1c-3,0-5.6-0.7-7.7-2.2
			s-3.2-3.7-3.1-6.7l0-0.1h5.4c0,1.6,0.5,2.8,1.4,3.6c1,0.8,2.3,1.2,3.9,1.2c1.5,0,2.6-0.3,3.4-0.9C15,22.8,15.4,22,15.4,20.9z"/>
		<path class="st0" d="M47.5,16.8c0,3.4-1.1,6.2-3.2,8.5c-2.1,2.2-4.9,3.3-8.4,3.3c-3.4,0-6.2-1.1-8.4-3.3c-2.1-2.2-3.2-5-3.2-8.4
			v-5c0-3.4,1.1-6.2,3.2-8.4C29.7,1.1,32.4,0,35.9,0c3.4,0,6.2,1.1,8.4,3.3c2.2,2.2,3.2,5,3.2,8.4V16.8z M42,11.7
			c0-2.2-0.5-3.9-1.6-5.3c-1.1-1.4-2.6-2.1-4.5-2.1c-1.9,0-3.3,0.7-4.4,2.1c-1,1.4-1.6,3.2-1.6,5.3v5c0,2.2,0.5,4,1.6,5.4
			c1.1,1.4,2.5,2.1,4.4,2.1c1.9,0,3.4-0.7,4.5-2.1c1.1-1.4,1.6-3.2,1.6-5.4V11.7z"/>
		<path class="st0" d="M66.4,20.9c0-1.1-0.4-1.9-1.1-2.6c-0.7-0.6-2-1.3-3.9-1.8c-3.2-1-5.6-2.1-7.3-3.4c-1.7-1.3-2.5-3.1-2.5-5.4
			c0-2.3,0.9-4.1,2.8-5.6S58.6,0,61.5,0c3.1,0,5.6,0.8,7.4,2.3c1.9,1.6,2.8,3.6,2.7,6.1l0,0.1h-5.4c0-1.4-0.4-2.4-1.3-3.2
			c-0.8-0.7-2-1.1-3.5-1.1c-1.4,0-2.4,0.3-3.2,1c-0.8,0.7-1.1,1.5-1.1,2.5c0,0.9,0.4,1.7,1.2,2.3c0.8,0.6,2.2,1.2,4.2,1.9
			c3.1,0.9,5.4,2,7,3.4c1.6,1.4,2.4,3.2,2.4,5.5c0,2.4-0.9,4.3-2.8,5.6c-1.9,1.4-4.3,2.1-7.4,2.1c-3,0-5.6-0.7-7.7-2.2
			c-2.1-1.5-3.2-3.7-3.1-6.7l0-0.1h5.4c0,1.6,0.5,2.8,1.4,3.6c1,0.8,2.3,1.2,3.9,1.2c1.5,0,2.6-0.3,3.4-0.9
			C66,22.8,66.4,22,66.4,20.9z"/>
	</g>
</g>
</svg>
